<svg width="24" height="24" viewBox="0 0 24 24" fill="none" xmlns="http://www.w3.org/2000/svg">
<path d="M11.5 2C12.418 2 13.3034 2.11689 14.1562 2.35068C15.0091 2.58447 15.8066 2.91892 16.5488 3.35403C17.291 3.78914 17.9648 4.30867 18.5703 4.91262C19.1758 5.51658 19.6966 6.19197 20.1328 6.93879C20.569 7.68562 20.9043 8.48115 21.1387 9.32539C21.373 10.1696 21.4935 11.0528 21.5 11.975C21.5 12.8907 21.3828 13.7739 21.1484 14.6246C20.9141 15.4753 20.5788 16.2709 20.1426 17.0112C19.7064 17.7515 19.1855 18.4237 18.5801 19.0276C17.9746 19.6316 17.2975 20.1511 16.5488 20.5862C15.8001 21.0213 15.0026 21.3558 14.1562 21.5896C13.3099 21.8234 12.4245 21.9435 11.5 21.95C10.582 21.95 9.69661 21.8331 8.84375 21.5993C7.99089 21.3655 7.19336 21.0311 6.45117 20.596C5.70898 20.1609 5.03516 19.6413 4.42969 19.0374C3.82422 18.4334 3.30339 17.758 2.86719 17.0112C2.43099 16.2644 2.0957 15.4721 1.86133 14.6344C1.62695 13.7966 1.50651 12.9102 1.5 11.975C1.5 11.0593 1.61719 10.1761 1.85156 9.32539C2.08594 8.47466 2.42122 7.67913 2.85742 6.93879C3.29362 6.19846 3.81445 5.52632 4.41992 4.92236C5.02539 4.31841 5.70247 3.79888 6.45117 3.36377C7.19987 2.92866 7.99414 2.59421 8.83398 2.36042C9.67383 2.12664 10.5625 2.00649 11.5 2ZM11.5 20.7031C12.3008 20.7031 13.0723 20.5992 13.8145 20.3914C14.5566 20.1836 15.2533 19.8914 15.9043 19.5147C16.5553 19.138 17.1478 18.6802 17.6816 18.1412C18.2155 17.6022 18.6712 17.0145 19.0488 16.378C19.4264 15.7416 19.7227 15.0467 19.9375 14.2934C20.1523 13.5401 20.2565 12.7673 20.25 11.975C20.25 11.1762 20.1458 10.4067 19.9375 9.66633C19.7292 8.926 19.4362 8.23113 19.0586 7.58171C18.681 6.9323 18.222 6.34133 17.6816 5.80881C17.1413 5.27629 16.5521 4.8217 15.9141 4.44504C15.276 4.06838 14.5794 3.7729 13.8242 3.55859C13.069 3.34429 12.2943 3.24038 11.5 3.24688C10.6992 3.24688 9.92773 3.35078 9.18555 3.55859C8.44336 3.76641 7.74674 4.05864 7.0957 4.4353C6.44466 4.81196 5.85221 5.2698 5.31836 5.80881C4.78451 6.34783 4.32878 6.93555 3.95117 7.57197C3.57357 8.2084 3.27734 8.90327 3.0625 9.65659C2.84766 10.4099 2.74349 11.1827 2.75 11.975C2.75 12.7738 2.85417 13.5433 3.0625 14.2837C3.27083 15.024 3.5638 15.7189 3.94141 16.3683C4.31901 17.0177 4.77799 17.6087 5.31836 18.1412C5.85872 18.6737 6.44792 19.1283 7.08594 19.505C7.72396 19.8816 8.42057 20.1771 9.17578 20.3914C9.93099 20.6057 10.7057 20.7096 11.5 20.7031ZM17.3301 12.1309L17.7988 10.7281H18.5312L17.7012 13.2219H16.9688L16.5 11.8191L16.0312 13.2219H15.2988L14.4688 10.7281H15.2012L15.6699 12.1309L16.1387 10.7281H16.8613L17.3301 12.1309ZM12.7988 10.7281H13.5312L12.7012 13.2219H11.9688L11.5 11.8191L11.0312 13.2219H10.2988L9.46875 10.7281H10.2012L10.6699 12.1309L11.1387 10.7281H11.8613L12.3301 12.1309L12.7988 10.7281ZM7.79883 10.7281H8.53125L7.70117 13.2219H6.96875L6.5 11.8191L6.03125 13.2219H5.29883L4.46875 10.7281H5.20117L5.66992 12.1309L6.13867 10.7281H6.86133L7.33008 12.1309L7.79883 10.7281Z" fill="white"/>
</svg>
