<svg width="238" height="200" viewBox="0 0 238 200" fill="none" xmlns="http://www.w3.org/2000/svg">
<path d="M182.331 71.5068C181.352 69.5179 180.105 67.5408 178.541 65.5933C174.14 60.0882 167.26 54.8258 156.881 50.3448C115.616 34.0901 85.2068 51.1676 73.2642 59.4726C71.0321 61.0235 69.4423 62.2725 68.552 62.9355C70.0528 61.9114 71.8143 60.9465 73.7984 60.0527C95.0573 50.4514 141.606 49.0366 163.787 73.5135C166.611 76.6271 169.034 80.161 170.967 84.1448C171.622 85.5062 172.226 86.921 172.76 88.3831C174.198 92.2899 175.19 96.5874 175.673 101.293C175.934 103.809 176.048 106.437 175.997 109.19C175.8 111.09 191.94 90.9995 182.331 71.5068Z" fill="#D0D2D3"/>
<path d="M58.9623 176.57C58.6507 176.434 58.2946 176.31 57.9003 176.186C57.5061 176.061 57.0673 175.996 56.584 175.984C56.1706 175.984 55.8336 176.073 55.5729 176.251C55.293 176.428 55.1468 176.712 55.1468 177.109C55.1468 177.304 55.2167 177.482 55.3566 177.642C55.4838 177.808 55.6492 177.967 55.859 178.121C56.3105 178.405 56.832 178.69 57.417 178.98C58.0021 179.27 58.5235 179.631 58.9687 180.051C59.4265 180.483 59.6618 181.04 59.6746 181.72C59.6618 182.567 59.3375 183.212 58.708 183.65C58.0784 184.094 57.2326 184.313 56.1706 184.313C55.5538 184.301 55.0069 184.242 54.5236 184.135C54.0339 184.029 53.7095 183.958 53.5442 183.922V182.318C53.8431 182.496 54.212 182.679 54.6635 182.875C55.1277 183.088 55.6492 183.2 56.2406 183.212C56.8638 183.206 57.3026 183.064 57.5633 182.786C57.7922 182.531 57.9067 182.247 57.9067 181.939C57.9003 181.442 57.665 181.04 57.2072 180.726C56.7557 180.406 56.2406 180.098 55.6492 179.808C55.0578 179.518 54.5363 179.175 54.0848 178.778C53.6205 178.388 53.3789 177.873 53.3726 177.239C53.3789 176.422 53.7032 175.819 54.3328 175.44C54.9496 175.067 55.7128 174.883 56.6348 174.883C57.1754 174.883 57.6587 174.913 58.0784 174.978C58.4917 175.037 58.7843 175.09 58.9623 175.132V176.57Z" fill="#808184"/>
<path d="M63.7316 184.313C61.8112 184.272 60.8446 183.176 60.8382 181.016C60.8446 178.855 61.8112 177.754 63.7316 177.719C65.6521 177.754 66.6187 178.849 66.6251 181.016C66.6124 183.176 65.6521 184.272 63.7316 184.313ZM62.4598 181.022C62.4598 181.312 62.4789 181.59 62.5107 181.856C62.5361 182.117 62.5933 182.36 62.676 182.579C62.7714 182.792 62.9049 182.957 63.083 183.082C63.2483 183.212 63.4646 183.283 63.7316 183.283C64.0051 183.283 64.234 183.218 64.4057 183.082C64.5711 182.957 64.6982 182.792 64.7809 182.579C64.8699 182.36 64.9335 182.117 64.9717 181.856C64.9908 181.59 64.9971 181.312 64.9971 181.022C65.0035 180.4 64.9335 179.873 64.7809 179.435C64.6982 179.228 64.5711 179.057 64.4057 178.932C64.2277 178.814 64.0051 178.761 63.7316 178.761C63.4646 178.761 63.2483 178.82 63.083 178.932C62.9049 179.057 62.7714 179.222 62.676 179.435C62.5234 179.873 62.4471 180.4 62.4598 181.022Z" fill="#808184"/>
<path d="M73.3469 184.017C72.7682 184.201 72.1259 184.301 71.4264 184.313C70.428 184.313 69.5949 184.029 68.9272 183.461C68.2595 182.904 67.9224 181.999 67.9097 180.738C67.897 179.891 68.1387 179.181 68.622 178.607C69.1053 178.032 69.8684 177.737 70.9113 177.719C71.4073 177.719 71.827 177.778 72.1577 177.902C72.4693 178.027 72.7173 178.198 72.9081 178.423C73.0098 178.53 73.0925 178.642 73.1561 178.755C73.2197 178.891 73.2705 179.027 73.3087 179.169C73.3723 179.447 73.4041 179.737 73.4041 180.027H71.7825C71.7825 179.708 71.7253 179.418 71.6108 179.157C71.4709 178.897 71.1974 178.766 70.7968 178.755C70.3835 178.761 70.0719 178.926 69.862 179.246C69.6458 179.572 69.5377 179.986 69.5377 180.477C69.5377 180.791 69.5886 181.111 69.6903 181.436C69.7921 181.762 69.9447 182.07 70.1482 182.348C70.3707 182.614 70.6442 182.833 70.9812 182.999C71.3246 183.182 71.738 183.277 72.2404 183.277C72.6728 183.277 73.0416 183.224 73.3469 183.117V184.017Z" fill="#808184"/>
<path d="M74.7267 175.037H76.253V176.482H74.7267V175.037ZM74.7267 177.867H76.253V184.165H74.7267V177.867Z" fill="#808184"/>
<path d="M83.07 184.059C82.5358 184.225 81.9253 184.313 81.2322 184.313C79.0509 184.284 77.9445 183.07 77.9318 180.685C77.9254 179.791 78.1416 179.069 78.5931 178.536C79.0446 178.003 79.7632 177.737 80.7489 177.725C82.4087 177.767 83.2354 178.619 83.2354 180.27V180.626H79.3499C79.3499 180.845 79.3943 181.105 79.4834 181.395C79.5342 181.537 79.5915 181.685 79.6551 181.833C79.7251 181.969 79.8078 182.117 79.9031 182.265C80.0939 182.549 80.3483 182.786 80.6599 182.97C80.9842 183.171 81.3721 183.278 81.8236 183.278C82.3451 183.26 82.7648 183.183 83.0764 183.035V184.059H83.07ZM81.7918 179.744C81.7982 179.525 81.7346 179.288 81.5883 179.033C81.4993 178.921 81.3848 178.826 81.2386 178.755C81.086 178.684 80.8825 178.649 80.6281 178.649C80.1829 178.66 79.865 178.791 79.6615 179.051C79.4707 179.3 79.369 179.531 79.3499 179.738H81.7918V179.744Z" fill="#808184"/>
<path d="M88.4246 183.301H88.3928C88.3229 183.497 88.1384 183.704 87.8396 183.929C87.5407 184.166 87.1782 184.29 86.7585 184.314C85.9 184.29 85.3086 183.958 84.9843 183.319C84.6599 182.68 84.5073 181.916 84.5137 181.016C84.5137 180.069 84.6981 179.288 85.0669 178.672C85.4167 178.045 85.9827 177.731 86.7648 177.719C87.0129 177.719 87.2291 177.743 87.4262 177.796C87.6106 177.867 87.7632 177.95 87.8841 178.051C88.1384 178.252 88.3101 178.441 88.4055 178.619H88.4373V175.032H89.9635V184.16H88.4373V183.301H88.4246ZM86.1353 181.022C86.1353 181.259 86.1544 181.508 86.1862 181.762C86.2116 182.023 86.2625 182.259 86.3324 182.467C86.4151 182.68 86.5296 182.846 86.6758 182.97C86.8348 183.106 87.0256 183.177 87.2545 183.177C87.4771 183.177 87.6615 183.106 87.8078 182.97C87.954 182.846 88.0748 182.674 88.1702 182.467C88.3356 182.029 88.4182 181.549 88.4182 181.022C88.4182 180.419 88.3356 179.909 88.1702 179.495C87.9922 179.081 87.6869 178.868 87.2545 178.862C87.0065 178.862 86.8157 178.921 86.6758 179.045C86.5296 179.17 86.4151 179.335 86.3324 179.537C86.2625 179.738 86.2116 179.969 86.1862 180.229C86.1544 180.478 86.1353 180.744 86.1353 181.022Z" fill="#808184"/>
<path d="M95.3562 183.437H95.3307C95.2353 183.638 95.0636 183.834 94.8029 184.017C94.663 184.1 94.4977 184.165 94.3069 184.218C94.1161 184.272 93.8872 184.301 93.6201 184.313C93.0605 184.301 92.5963 184.147 92.2401 183.863C91.8713 183.561 91.6869 183.165 91.6869 182.661C91.6932 182.141 91.8459 181.732 92.1448 181.43C92.4309 181.14 92.7743 180.933 93.1877 180.809C93.6074 180.684 94.0144 180.602 94.4086 180.572C94.8156 180.536 95.1272 180.525 95.3562 180.536V179.915C95.3562 179.589 95.2989 179.317 95.1908 179.092C95.0636 178.879 94.8156 178.766 94.4404 178.755C94.0334 178.761 93.7664 178.873 93.6265 179.08C93.4865 179.281 93.423 179.5 93.4293 179.725H91.9476C91.9476 178.423 92.7807 177.754 94.4404 177.719C96.0366 177.731 96.8251 178.382 96.8188 179.678V184.159H95.3625V183.437H95.3562ZM93.1686 182.525C93.1686 183.028 93.442 183.283 93.9826 183.283C94.2306 183.283 94.4468 183.218 94.6312 183.094C94.7966 182.981 94.9365 182.833 95.0509 182.644C95.159 182.448 95.2417 182.247 95.2989 182.034C95.3371 181.815 95.3562 181.596 95.3562 181.389C94.8283 181.389 94.345 181.466 93.9063 181.626C93.6964 181.714 93.5247 181.833 93.3912 181.981C93.2385 182.129 93.1686 182.312 93.1686 182.525Z" fill="#808184"/>
<path d="M102.371 183.301H102.339C102.269 183.497 102.084 183.704 101.785 183.929C101.486 184.166 101.124 184.29 100.704 184.314C99.8458 184.29 99.2543 183.958 98.93 183.319C98.6057 182.68 98.4467 181.916 98.4594 181.016C98.4594 180.069 98.6439 179.288 99.0127 178.672C99.3625 178.045 99.9284 177.731 100.704 177.719C100.952 177.719 101.168 177.743 101.366 177.796C101.55 177.867 101.703 177.95 101.823 178.051C102.078 178.252 102.25 178.441 102.339 178.619H102.371V175.032H103.897V184.16H102.371V183.301ZM100.081 181.022C100.081 181.259 100.1 181.508 100.132 181.762C100.157 182.023 100.208 182.259 100.278 182.467C100.361 182.68 100.475 182.846 100.622 182.97C100.781 183.106 100.971 183.177 101.2 183.177C101.423 183.177 101.607 183.106 101.754 182.97C101.9 182.846 102.021 182.674 102.116 182.467C102.282 182.029 102.364 181.549 102.364 181.022C102.364 180.419 102.282 179.909 102.116 179.495C101.938 179.081 101.633 178.868 101.2 178.862C100.952 178.862 100.761 178.921 100.622 179.045C100.475 179.17 100.361 179.335 100.278 179.537C100.208 179.738 100.157 179.969 100.132 180.229C100.1 180.478 100.081 180.744 100.081 181.022Z" fill="#808184"/>
<path d="M110.707 184.059C110.173 184.225 109.563 184.313 108.87 184.313C106.682 184.284 105.582 183.07 105.563 180.685C105.556 179.791 105.773 179.069 106.224 178.536C106.676 178.003 107.394 177.737 108.38 177.725C110.04 177.767 110.866 178.619 110.866 180.27V180.626H106.981C106.981 180.845 107.025 181.105 107.114 181.395C107.165 181.537 107.223 181.685 107.286 181.833C107.356 181.969 107.439 182.117 107.534 182.265C107.725 182.549 107.979 182.786 108.291 182.97C108.615 183.171 109.003 183.278 109.455 183.278C109.976 183.26 110.396 183.183 110.707 183.035V184.059ZM109.423 179.744C109.429 179.525 109.366 179.288 109.219 179.033C109.13 178.921 109.016 178.826 108.87 178.755C108.717 178.684 108.514 178.649 108.259 178.649C107.814 178.66 107.496 178.791 107.293 179.051C107.102 179.3 107 179.531 106.981 179.738H109.423V179.744Z" fill="#808184"/>
<path d="M116.799 175.037H119.718C119.985 175.037 120.271 175.061 120.583 175.103C120.894 175.144 121.187 175.245 121.46 175.404C121.734 175.547 121.963 175.766 122.147 176.056C122.319 176.346 122.408 176.719 122.408 177.18C122.408 177.541 122.357 177.843 122.255 178.092C122.147 178.341 122.007 178.542 121.836 178.702C121.48 179.003 121.142 179.199 120.831 179.282V179.305C121.047 179.329 121.276 179.376 121.518 179.453C121.759 179.536 121.976 179.672 122.179 179.85C122.389 180.016 122.567 180.247 122.707 180.543C122.84 180.821 122.904 181.188 122.904 181.644C122.898 182.2 122.796 182.644 122.618 182.97C122.427 183.313 122.166 183.567 121.842 183.733C121.53 183.899 121.187 184.017 120.818 184.082C120.443 184.142 120.08 184.171 119.731 184.171H116.799V175.037ZM118.408 178.784H119.05C119.305 178.784 119.54 178.767 119.756 178.725C119.966 178.69 120.144 178.631 120.297 178.542C120.449 178.453 120.57 178.317 120.653 178.127C120.735 177.962 120.774 177.731 120.774 177.441C120.774 177.151 120.735 176.914 120.666 176.736C120.583 176.571 120.462 176.44 120.309 176.358C120.163 176.257 119.985 176.192 119.769 176.156C119.654 176.138 119.546 176.133 119.438 176.133C119.317 176.133 119.184 176.133 119.05 176.133H118.408V178.784ZM118.408 183.064H119.057C119.33 183.064 119.597 183.041 119.864 182.999C120.119 182.964 120.36 182.893 120.577 182.786C120.786 182.674 120.958 182.508 121.085 182.295C121.206 182.093 121.27 181.827 121.27 181.501C121.263 180.904 121.066 180.483 120.685 180.235C120.29 179.992 119.75 179.874 119.063 179.874H118.414V183.064H118.408Z" fill="#808184"/>
<path d="M124.634 177.867H126.16V179.033H126.192C126.281 178.879 126.389 178.72 126.51 178.56C126.618 178.412 126.745 178.27 126.891 178.145C127.196 177.873 127.667 177.737 128.309 177.725V179.264C126.84 179.246 126.128 179.963 126.16 181.407V184.171H124.634V177.867Z" fill="#808184"/>
<path d="M132.996 183.437H132.971C132.875 183.638 132.703 183.834 132.443 184.017C132.303 184.1 132.137 184.165 131.947 184.218C131.756 184.272 131.527 184.301 131.26 184.313C130.7 184.301 130.236 184.147 129.88 183.863C129.511 183.561 129.327 183.165 129.327 182.661C129.333 182.141 129.486 181.732 129.785 181.43C130.071 181.14 130.414 180.933 130.827 180.809C131.247 180.684 131.654 180.602 132.048 180.572C132.455 180.536 132.767 180.525 132.996 180.536V179.915C132.996 179.589 132.939 179.317 132.831 179.092C132.703 178.879 132.455 178.766 132.074 178.755C131.673 178.761 131.4 178.873 131.26 179.08C131.12 179.281 131.056 179.5 131.063 179.725H129.581C129.581 178.423 130.414 177.754 132.074 177.719C133.67 177.731 134.459 178.382 134.452 179.678V184.159H132.996V183.437ZM130.808 182.525C130.808 183.028 131.082 183.283 131.622 183.283C131.87 183.283 132.087 183.218 132.271 183.094C132.436 182.981 132.576 182.833 132.691 182.644C132.799 182.448 132.881 182.247 132.939 182.034C132.977 181.815 132.99 181.596 132.99 181.389C132.462 181.389 131.978 181.466 131.54 181.626C131.33 181.714 131.158 181.833 131.025 181.981C130.885 182.129 130.808 182.312 130.808 182.525Z" fill="#808184"/>
<path d="M139.89 179.205C139.801 179.151 139.622 179.069 139.361 178.95C139.094 178.849 138.783 178.79 138.427 178.784C138.179 178.784 137.956 178.832 137.753 178.926C137.517 179.033 137.403 179.181 137.403 179.364C137.403 179.453 137.454 179.542 137.543 179.643C137.625 179.743 137.734 179.844 137.874 179.933C138.154 180.11 138.478 180.306 138.847 180.531C139.222 180.744 139.559 180.998 139.845 181.3C140.125 181.596 140.271 181.969 140.284 182.425C140.277 183.064 140.049 183.538 139.597 183.84C139.146 184.159 138.554 184.319 137.81 184.319C137.371 184.307 137.009 184.272 136.736 184.224C136.456 184.165 136.233 184.112 136.074 184.07V182.804C136.182 182.839 136.303 182.875 136.443 182.922C136.57 182.981 136.703 183.023 136.837 183.058C137.129 183.141 137.435 183.188 137.74 183.188C137.962 183.188 138.198 183.153 138.453 183.082C138.72 183.011 138.859 182.857 138.872 182.614C138.859 182.431 138.713 182.241 138.44 182.046C138.167 181.862 137.842 181.661 137.467 181.436C137.302 181.318 137.129 181.2 136.958 181.069C136.792 180.933 136.64 180.791 136.5 180.643C136.207 180.347 136.062 179.992 136.049 179.583C136.049 178.986 136.265 178.524 136.697 178.204C137.117 177.891 137.689 177.731 138.408 177.731C138.738 177.743 139.031 177.766 139.292 177.808C139.54 177.867 139.743 177.92 139.896 177.968V179.205H139.89Z" fill="#808184"/>
<path d="M141.835 175.037H143.362V176.482H141.835V175.037ZM141.835 177.867H143.362V184.165H141.835V177.867Z" fill="#808184"/>
<path d="M145.512 175.037H147.038V184.165H145.512V175.037Z" fill="#808184"/>
<path d="M153.861 184.059C153.327 184.225 152.717 184.313 152.023 184.313C149.836 184.284 148.736 183.07 148.717 180.685C148.71 179.791 148.926 179.069 149.378 178.536C149.829 178.003 150.548 177.737 151.534 177.725C153.194 177.767 154.02 178.619 154.02 180.27V180.626H150.135C150.135 180.845 150.179 181.105 150.268 181.395C150.319 181.537 150.376 181.685 150.44 181.833C150.51 181.969 150.593 182.117 150.688 182.265C150.879 182.549 151.133 182.786 151.445 182.97C151.769 183.171 152.157 183.278 152.608 183.278C153.13 183.26 153.55 183.183 153.861 183.035V184.059ZM152.583 179.744C152.596 179.525 152.526 179.288 152.38 179.033C152.291 178.921 152.176 178.826 152.03 178.755C151.877 178.684 151.674 178.649 151.419 178.649C150.974 178.66 150.656 178.791 150.453 179.051C150.262 179.3 150.16 179.531 150.141 179.738H152.583V179.744Z" fill="#808184"/>
<path d="M155.775 175.037H157.302V176.482H155.775V175.037ZM155.775 177.867H157.302V184.165H155.775V177.867Z" fill="#808184"/>
<path d="M159.356 177.867H160.882V179.033H160.914C161.003 178.879 161.111 178.72 161.232 178.56C161.34 178.412 161.467 178.27 161.613 178.145C161.918 177.873 162.389 177.737 163.031 177.725V179.264C161.562 179.246 160.85 179.963 160.882 181.407V184.171H159.356V177.867Z" fill="#808184"/>
<path d="M167.717 183.437H167.692C167.597 183.638 167.425 183.834 167.164 184.017C167.024 184.1 166.859 184.165 166.668 184.218C166.477 184.272 166.248 184.301 165.981 184.313C165.422 184.301 164.958 184.147 164.601 183.863C164.233 183.561 164.048 183.165 164.048 182.661C164.055 182.141 164.207 181.732 164.506 181.43C164.792 181.14 165.136 180.933 165.549 180.809C165.969 180.684 166.376 180.602 166.77 180.572C167.177 180.536 167.489 180.525 167.717 180.536V179.915C167.717 179.589 167.66 179.317 167.552 179.092C167.425 178.879 167.177 178.766 166.795 178.755C166.388 178.761 166.121 178.873 165.981 179.08C165.841 179.281 165.778 179.5 165.784 179.725H164.303C164.303 178.423 165.136 177.754 166.795 177.719C168.392 177.731 169.18 178.382 169.174 179.678V184.159H167.717V183.437ZM165.53 182.525C165.53 183.028 165.803 183.283 166.344 183.283C166.592 183.283 166.808 183.218 166.992 183.094C167.158 182.981 167.298 182.833 167.412 182.644C167.52 182.448 167.603 182.247 167.66 182.034C167.698 181.815 167.717 181.596 167.717 181.389C167.19 181.389 166.706 181.466 166.268 181.626C166.058 181.714 165.886 181.833 165.752 181.981C165.606 182.129 165.53 182.312 165.53 182.525Z" fill="#808184"/>
<path d="M70.784 195.731H70.7522C70.6823 195.927 70.4979 196.134 70.199 196.359C69.9001 196.596 69.5376 196.726 69.1179 196.744C68.2594 196.72 67.668 196.389 67.3437 195.749C67.0194 195.11 66.8668 194.346 66.8731 193.452C66.8731 192.505 67.0575 191.724 67.4264 191.108C67.7761 190.487 68.3421 190.167 69.1179 190.161C69.3659 190.161 69.5821 190.185 69.7793 190.238C69.9637 190.309 70.1163 190.392 70.2371 190.493C70.4915 190.694 70.6632 190.883 70.7522 191.061H70.784V187.474H72.3103V196.602H70.784V195.731ZM68.4947 193.452C68.4947 193.689 68.5138 193.938 68.5456 194.192C68.571 194.453 68.6219 194.684 68.6919 194.897C68.7745 195.11 68.8953 195.276 69.0353 195.4C69.1942 195.536 69.385 195.607 69.6139 195.607C69.8365 195.607 70.0209 195.536 70.1672 195.4C70.3135 195.276 70.4343 195.11 70.5297 194.897C70.695 194.459 70.7777 193.979 70.7777 193.452C70.7777 192.849 70.695 192.34 70.5297 191.925C70.3516 191.511 70.0464 191.298 69.6139 191.292C69.3659 191.292 69.1752 191.351 69.0353 191.475C68.889 191.6 68.7745 191.765 68.6919 191.967C68.6219 192.168 68.571 192.399 68.5456 192.659C68.5138 192.914 68.4947 193.18 68.4947 193.452Z" fill="#808184"/>
<path d="M79.1211 196.496C78.5869 196.661 77.9764 196.75 77.2833 196.75C75.0957 196.721 73.9955 195.507 73.9765 193.116C73.9701 192.222 74.1863 191.506 74.6378 190.961C75.0893 190.434 75.8079 190.162 76.7936 190.156C78.4534 190.197 79.2801 191.05 79.2801 192.701V193.057H75.3946C75.3946 193.276 75.4391 193.536 75.5281 193.826C75.579 193.968 75.6362 194.116 75.6998 194.264C75.7698 194.4 75.8524 194.548 75.9478 194.696C76.1386 194.98 76.393 195.217 76.7046 195.401C77.0289 195.602 77.4168 195.703 77.8683 195.703C78.3898 195.685 78.8095 195.608 79.1211 195.466V196.496ZM77.8365 192.18C77.8429 191.961 77.7793 191.725 77.633 191.47C77.544 191.358 77.4295 191.263 77.2833 191.192C77.1306 191.121 76.9271 191.085 76.6728 191.085C76.2276 191.091 75.9097 191.227 75.7062 191.488C75.5154 191.736 75.4136 191.961 75.3946 192.175H77.8365V192.18Z" fill="#808184"/>
<path d="M91.4197 196.217C91.3052 196.258 91.1717 196.306 91.0127 196.359C90.8283 196.43 90.6248 196.495 90.4022 196.543C89.9443 196.661 89.4229 196.732 88.8378 196.744C87.4706 196.732 86.4658 196.294 85.8235 195.43C85.1685 194.571 84.8442 193.423 84.8442 191.985C84.8379 190.611 85.124 189.493 85.7154 188.64C86.2941 187.776 87.2544 187.338 88.5962 187.314C89.6963 187.326 90.5103 187.587 91.0254 188.096C91.5341 188.611 91.7949 189.232 91.7949 189.966H90.0079C90.0079 189.783 90.0016 189.593 89.9825 189.41C89.9443 189.226 89.8744 189.055 89.7726 188.907C89.6836 188.753 89.5437 188.634 89.3656 188.54C89.1749 188.457 88.9205 188.415 88.6089 188.415C88.1955 188.421 87.8649 188.534 87.6041 188.741C87.3434 188.942 87.1463 189.208 87.0127 189.54C86.8728 189.877 86.7774 190.232 86.7266 190.611C86.6693 191.002 86.6375 191.381 86.6375 191.748C86.6312 192.855 86.8219 193.755 87.2162 194.453C87.6041 195.163 88.2718 195.519 89.2257 195.524C89.779 195.519 90.2496 195.418 90.6438 195.234C91.0381 195.069 91.3052 194.938 91.4451 194.85V196.217H91.4197Z" fill="#808184"/>
<path d="M95.5659 196.75C93.6454 196.709 92.6788 195.614 92.6724 193.453C92.6788 191.293 93.6454 190.192 95.5659 190.156C97.4864 190.192 98.453 191.287 98.4594 193.453C98.453 195.608 97.4864 196.709 95.5659 196.75ZM94.294 193.453C94.294 193.743 94.3132 194.021 94.345 194.288C94.3704 194.548 94.4276 194.791 94.5102 195.01C94.6056 195.223 94.7392 195.389 94.9172 195.513C95.0826 195.649 95.2988 195.714 95.5659 195.714C95.8393 195.714 96.0683 195.649 96.24 195.513C96.4053 195.389 96.5325 195.223 96.6152 195.01C96.7042 194.791 96.7678 194.548 96.8059 194.288C96.825 194.021 96.8314 193.743 96.8314 193.453C96.8378 192.832 96.7678 192.305 96.6152 191.867C96.5325 191.654 96.4053 191.488 96.24 191.364C96.0619 191.251 95.8393 191.192 95.5659 191.192C95.2988 191.192 95.0826 191.251 94.9172 191.364C94.7392 191.488 94.6056 191.654 94.5102 191.867C94.3576 192.305 94.2877 192.837 94.294 193.453Z" fill="#808184"/>
<path d="M100.068 190.298H101.595V191.269H101.62C101.677 191.162 101.747 191.044 101.83 190.907C101.919 190.789 102.033 190.671 102.174 190.552C102.313 190.428 102.485 190.327 102.682 190.262C102.879 190.191 103.121 190.162 103.395 190.162C103.821 190.162 104.183 190.256 104.482 190.452C104.787 190.665 104.991 190.984 105.092 191.417H105.124C105.226 191.156 105.436 190.878 105.747 190.594C106.059 190.316 106.485 190.168 107.026 190.162C107.541 190.162 107.973 190.321 108.329 190.647C108.673 190.984 108.844 191.511 108.857 192.233V196.602H107.331V192.997C107.331 192.37 107.286 191.961 107.197 191.766C107.096 191.6 106.898 191.517 106.612 191.523C106.377 191.523 106.173 191.594 106.002 191.73C105.83 191.878 105.69 192.08 105.569 192.316C105.334 192.808 105.22 193.323 105.22 193.861V196.59H103.693V192.985C103.693 192.358 103.649 191.949 103.56 191.754C103.458 191.588 103.261 191.505 102.975 191.511C102.74 191.511 102.536 191.582 102.364 191.718C102.186 191.866 102.046 192.068 101.932 192.304C101.696 192.796 101.582 193.311 101.582 193.849V196.578H100.056V190.298H100.068Z" fill="#808184"/>
<path d="M110.93 190.298H112.456V191.168H112.488C112.577 190.967 112.768 190.748 113.067 190.523C113.347 190.286 113.696 190.162 114.11 190.156C114.975 190.174 115.572 190.499 115.897 191.133C116.221 191.772 116.373 192.542 116.367 193.453C116.367 194.388 116.189 195.164 115.839 195.779C115.471 196.407 114.891 196.727 114.103 196.75C113.874 196.75 113.67 196.715 113.486 196.638C113.308 196.584 113.156 196.513 113.016 196.413C112.762 196.212 112.583 196.022 112.481 195.85H112.45V199.432H110.924V190.298H110.93ZM112.456 193.453C112.45 194.045 112.533 194.548 112.704 194.963C112.876 195.383 113.175 195.602 113.601 195.608C113.868 195.608 114.077 195.543 114.23 195.412C114.376 195.288 114.491 195.122 114.574 194.921C114.657 194.708 114.701 194.477 114.72 194.217C114.739 193.962 114.746 193.708 114.746 193.453C114.746 193.193 114.739 192.938 114.72 192.684C114.694 192.423 114.637 192.192 114.561 191.991C114.472 191.778 114.364 191.606 114.218 191.47C114.059 191.352 113.855 191.287 113.607 191.287C113.403 191.287 113.239 191.346 113.105 191.47C112.959 191.606 112.832 191.778 112.73 191.991C112.539 192.435 112.456 192.926 112.456 193.453Z" fill="#808184"/>
<path d="M121.81 195.43H121.785C121.746 195.543 121.677 195.673 121.575 195.821C121.486 195.969 121.365 196.117 121.206 196.259C121.047 196.389 120.863 196.502 120.64 196.602C120.411 196.703 120.144 196.75 119.839 196.75C119.343 196.75 118.936 196.584 118.599 196.247C118.249 195.904 118.071 195.377 118.058 194.672V190.304H119.584V193.909C119.584 194.53 119.635 194.933 119.731 195.116C119.826 195.3 119.998 195.389 120.258 195.383C120.513 195.383 120.742 195.3 120.932 195.146C121.123 194.992 121.289 194.803 121.416 194.578C121.67 194.092 121.804 193.577 121.804 193.039V190.31H123.33V196.608H121.804V195.43H121.81Z" fill="#808184"/>
<path d="M129.327 196.638C128.914 196.709 128.494 196.75 128.068 196.75C127.649 196.75 127.305 196.703 127.038 196.602C126.771 196.513 126.561 196.395 126.421 196.235C126.294 196.069 126.199 195.88 126.148 195.667C126.091 195.465 126.059 195.246 126.059 195.016V191.328H124.781V190.31H126.059V188.818L127.585 187.93V190.31H129.525V191.328H127.585V194.305C127.579 194.69 127.636 195.016 127.763 195.282C127.833 195.412 127.935 195.519 128.068 195.584C128.208 195.673 128.393 195.72 128.622 195.72C128.876 195.72 129.111 195.685 129.327 195.608V196.638Z" fill="#808184"/>
<path d="M134.052 195.868H134.026C133.931 196.07 133.759 196.265 133.498 196.448C133.359 196.531 133.193 196.596 133.002 196.65C132.812 196.703 132.583 196.732 132.316 196.75C131.756 196.738 131.292 196.584 130.936 196.3C130.567 195.998 130.382 195.602 130.382 195.099C130.389 194.578 130.541 194.169 130.84 193.867C131.126 193.577 131.47 193.376 131.883 193.246C132.303 193.122 132.71 193.045 133.104 193.009C133.511 192.974 133.823 192.962 134.058 192.968V192.346C134.058 192.021 134.001 191.742 133.893 191.523C133.765 191.31 133.517 191.198 133.136 191.186C132.735 191.192 132.462 191.304 132.322 191.512C132.182 191.713 132.118 191.932 132.125 192.157H130.643C130.643 190.854 131.476 190.186 133.136 190.156C134.732 190.162 135.521 190.819 135.514 192.115V196.602H134.058V195.868H134.052ZM131.864 194.957C131.864 195.46 132.138 195.714 132.678 195.714C132.926 195.714 133.142 195.649 133.327 195.525C133.492 195.412 133.632 195.264 133.746 195.069C133.855 194.874 133.937 194.673 133.994 194.459C134.033 194.24 134.045 194.021 134.045 193.814C133.517 193.814 133.034 193.897 132.595 194.051C132.386 194.14 132.214 194.258 132.08 194.406C131.934 194.566 131.864 194.744 131.864 194.957Z" fill="#808184"/>
<path d="M139.197 196.549C137.791 196.176 137.066 195.057 137.035 193.175C137.028 192.328 137.27 191.618 137.766 191.044C138.256 190.47 139.038 190.174 140.106 190.156C140.615 190.156 141.041 190.215 141.378 190.34C141.696 190.464 141.95 190.635 142.147 190.86C142.256 190.967 142.338 191.079 142.402 191.192C142.465 191.328 142.516 191.464 142.561 191.606C142.624 191.884 142.656 192.175 142.656 192.465H141.035C141.035 192.145 140.971 191.855 140.85 191.594C140.704 191.334 140.418 191.204 139.992 191.192C139.559 191.198 139.229 191.364 139.006 191.683C138.777 192.009 138.663 192.423 138.663 192.914C138.663 193.228 138.714 193.548 138.822 193.873C138.93 194.199 139.082 194.507 139.292 194.785C139.515 195.051 139.801 195.27 140.144 195.436C140.494 195.62 140.92 195.714 141.429 195.714C141.868 195.714 142.243 195.661 142.554 195.555V196.454C141.969 196.638 141.327 196.738 140.621 196.75C140.399 196.75 140.189 196.732 139.985 196.703L139.801 197.461C139.858 197.455 139.922 197.449 139.998 197.449C140.132 197.449 140.272 197.461 140.43 197.49C140.589 197.526 140.742 197.591 140.882 197.691C141.035 197.78 141.149 197.899 141.232 198.058C141.321 198.218 141.359 198.414 141.359 198.65C141.359 199.029 141.225 199.343 140.958 199.592C140.698 199.852 140.284 199.988 139.725 200C139.451 199.994 139.229 199.953 139.057 199.882C138.885 199.822 138.752 199.769 138.656 199.722V198.887C138.803 198.97 138.955 199.047 139.114 199.112C139.26 199.183 139.438 199.225 139.642 199.236C139.877 199.225 140.036 199.154 140.132 199.023C140.233 198.905 140.284 198.781 140.284 198.65C140.272 198.36 140.157 198.165 139.934 198.07C139.699 197.976 139.458 197.934 139.216 197.94C139.095 197.94 138.981 197.958 138.86 197.993L139.197 196.549Z" fill="#808184"/>
<path d="M147.197 195.868H147.171C147.076 196.069 146.904 196.264 146.644 196.448C146.504 196.531 146.338 196.596 146.148 196.649C145.957 196.702 145.721 196.732 145.461 196.75C144.901 196.738 144.437 196.584 144.081 196.3C143.712 195.998 143.528 195.601 143.528 195.098C143.534 194.577 143.687 194.169 143.985 193.867C144.272 193.577 144.615 193.376 145.028 193.245C145.448 193.121 145.855 193.044 146.249 193.009C146.656 192.973 146.968 192.961 147.197 192.967V192.346C147.197 192.02 147.14 191.742 147.025 191.523C146.898 191.31 146.65 191.197 146.275 191.185C145.874 191.191 145.601 191.304 145.461 191.511C145.321 191.712 145.257 191.931 145.264 192.156H143.782C143.782 190.854 144.615 190.185 146.275 190.155C147.871 190.161 148.659 190.818 148.653 192.115V196.602H147.197V195.868ZM144.405 189.084C144.399 188.48 144.456 188.024 144.59 187.728C144.723 187.427 144.965 187.279 145.327 187.279C145.486 187.279 145.652 187.326 145.823 187.415C146.008 187.492 146.186 187.592 146.364 187.717C146.548 187.817 146.707 187.918 146.847 188.007C146.981 188.101 147.089 188.149 147.165 188.149C147.26 188.155 147.33 188.107 147.375 187.995C147.394 187.876 147.4 187.681 147.4 187.403H148.208C148.208 188.024 148.157 188.48 148.062 188.776C147.941 189.066 147.68 189.208 147.273 189.208C147.089 189.208 146.917 189.167 146.745 189.078C146.561 188.989 146.389 188.895 146.224 188.8C146.058 188.681 145.912 188.587 145.779 188.51C145.639 188.439 145.531 188.403 145.448 188.403C145.365 188.403 145.302 188.451 145.264 188.539C145.225 188.634 145.213 188.818 145.213 189.09H144.405V189.084ZM145.009 194.956C145.009 195.459 145.283 195.714 145.823 195.714C146.071 195.714 146.287 195.649 146.472 195.524C146.637 195.412 146.777 195.264 146.892 195.069C147 194.873 147.082 194.672 147.14 194.459C147.178 194.24 147.19 194.021 147.19 193.814C146.663 193.814 146.179 193.896 145.741 194.05C145.531 194.139 145.359 194.258 145.225 194.406C145.086 194.565 145.009 194.743 145.009 194.956Z" fill="#808184"/>
<path d="M153.194 196.75C151.273 196.709 150.306 195.614 150.3 193.453C150.306 191.293 151.273 190.192 153.194 190.156C155.114 190.192 156.081 191.287 156.087 193.453C156.081 195.608 155.114 196.709 153.194 196.75ZM151.922 193.453C151.922 193.743 151.941 194.021 151.973 194.288C151.998 194.548 152.055 194.791 152.138 195.01C152.233 195.223 152.367 195.389 152.545 195.513C152.71 195.649 152.926 195.714 153.194 195.714C153.467 195.714 153.696 195.649 153.868 195.513C154.033 195.389 154.16 195.223 154.243 195.01C154.332 194.791 154.395 194.548 154.434 194.288C154.453 194.021 154.459 193.743 154.459 193.453C154.465 192.832 154.395 192.305 154.243 191.867C154.16 191.654 154.033 191.488 153.868 191.364C153.69 191.251 153.467 191.192 153.194 191.192C152.926 191.192 152.71 191.251 152.545 191.364C152.367 191.488 152.233 191.654 152.138 191.867C151.985 192.305 151.915 192.837 151.922 193.453Z" fill="#808184"/>
<path d="M109.798 135.62C110.777 135.46 111.61 135.182 112.278 134.791C112.914 134.418 113.422 133.815 113.791 133.01C114.16 132.24 114.344 131.163 114.344 129.795C114.344 128.392 114.179 127.268 113.842 126.457C113.492 125.776 112.996 125.243 112.348 124.876C111.642 124.409 110.828 124.107 109.868 123.947C109.346 123.864 108.818 123.829 108.316 123.829H103.814V135.904H106.325C107.559 135.91 108.723 135.81 109.798 135.62Z" fill="#0A846C"/>
<path d="M114.198 144.706C112.328 143.576 109.683 142.99 106.351 142.99H103.827V157.806H106.351C107.686 157.806 109.022 157.699 110.332 157.486C111.572 157.32 112.704 156.983 113.728 156.474C114.656 155.965 115.425 155.213 116.004 154.26C116.557 153.343 116.837 152.1 116.837 150.56C116.786 147.743 115.921 145.825 114.198 144.706Z" fill="#0A846C"/>
<path d="M172.767 88.3828C151.273 110.527 80.1513 114.529 47.5029 73.9808C47.5029 81.83 47.5029 144.86 47.5029 170.586H175.679C175.679 163.986 175.679 124.385 175.679 101.293C175.196 96.5871 174.204 92.2896 172.767 88.3828ZM80.6346 162.103C77.2833 164.459 72.7619 165.649 67.1975 165.649H67.1785C63.9988 165.584 61.1117 165.276 58.5935 164.738C56.0943 164.187 54.4218 163.826 53.5761 163.648L52.9592 163.518V153.39L54.1802 154.118C55.6555 155 57.5506 155.941 59.8017 156.912C62.0656 157.966 64.6666 158.522 67.5409 158.564C70.4598 158.522 72.5266 157.877 73.6776 156.64C74.7269 155.474 75.242 154.213 75.242 152.792C75.1974 150.495 74.1355 148.654 71.9797 147.175C69.7221 145.57 67.0831 144.014 64.126 142.54C61.0545 141.042 58.3073 139.237 55.9671 137.171C53.4361 135.046 52.1197 132.222 52.0689 128.783C52.1134 124.337 53.894 121.034 57.3471 118.939C60.6094 116.974 64.7111 115.979 69.5441 115.979C72.3485 115.979 74.8795 116.151 77.0671 116.482C79.1847 116.79 80.7236 117.062 81.6457 117.287L82.2371 117.435V126.48L81.1179 126.007C79.5408 125.338 77.7411 124.681 75.7571 124.053C73.8238 123.444 71.6363 123.112 69.2516 123.071C67.3374 123.071 65.7603 123.479 64.5712 124.284C63.3248 125.066 62.727 126.303 62.727 128.084C62.727 128.925 63.0132 129.659 63.6109 130.322C64.2468 131.168 65.0545 131.932 66.0656 132.654C68.3104 134.063 70.9686 135.525 73.932 136.981C76.9971 138.509 79.7316 140.397 82.0654 142.599C84.5392 144.931 85.8301 147.968 85.9064 151.626C85.8301 156.208 84.0558 159.724 80.6346 162.103ZM125.219 158.356C124.163 160.239 122.72 161.653 120.939 162.559C119.279 163.447 117.435 164.075 115.476 164.418C113.499 164.732 111.591 164.891 109.785 164.891H94.0144V116.743H109.74C111.114 116.743 112.647 116.855 114.281 117.08C115.96 117.311 117.569 117.873 119.076 118.732C120.564 119.507 121.842 120.721 122.847 122.325C123.807 123.917 124.297 125.971 124.297 128.446C124.297 130.375 124.011 132.033 123.451 133.37C122.86 134.726 122.071 135.851 121.104 136.733C119.979 137.686 118.885 138.438 117.829 138.994C118.268 139.1 118.713 139.231 119.158 139.379C120.494 139.858 121.721 140.586 122.828 141.551C123.972 142.457 124.945 143.729 125.708 145.322C126.421 146.849 126.783 148.832 126.783 151.235C126.739 154.195 126.211 156.586 125.219 158.356ZM169.829 131.009H159.094V130.269C159.094 129.345 159.05 128.41 158.961 127.492C158.808 126.711 158.484 125.93 158.02 125.243C157.606 124.551 157.021 124.03 156.207 123.609C155.387 123.266 154.191 123.077 152.71 123.077C150.821 123.118 149.269 123.609 148.112 124.551C146.885 125.509 145.944 126.788 145.308 128.357C144.621 130.014 144.144 131.808 143.877 133.684C143.584 135.626 143.438 137.55 143.438 139.408C143.394 144.907 144.354 149.442 146.306 152.887C148.157 156.279 151.292 157.942 155.889 157.983C158.554 157.942 160.881 157.468 162.776 156.575C164.773 155.722 166.115 155.083 166.783 154.669L168.016 153.905V162.731L167.527 162.92C166.935 163.145 166.217 163.394 165.384 163.66C164.462 164.027 163.374 164.359 162.185 164.631C159.826 165.253 157.06 165.602 154.007 165.673H153.994H153.982C146.751 165.608 141.352 163.24 137.937 158.652C134.516 154.171 132.78 148.104 132.78 140.628C132.729 133.495 134.268 127.605 137.34 123.118C140.43 118.513 145.6 116.121 152.71 116.003C158.567 116.074 162.935 117.495 165.708 120.235C168.455 122.994 169.842 126.374 169.842 130.292V131.009H169.829Z" fill="#0A846C"/>
<path d="M77.1559 0H47.5028C47.5028 0 47.4965 25.9212 47.5028 39.1156C49.4106 13.2832 77.1559 0 77.1559 0Z" fill="#F5C414"/>
<path d="M190.483 49.4329C188.404 52.2387 184.576 55.8791 179.253 59.4959C180.811 61.4434 182.064 63.4264 183.043 65.4153C188.582 57.4241 190.712 50.6108 190.483 49.4329Z" fill="#1479BE"/>
<path d="M90.4594 72.5783C83.0319 68.559 78.4023 65.3033 74.3897 61.0532C72.4119 61.947 67.5281 64.4865 65.3659 65.0962C66.8794 63.3381 70.377 60.1593 72.3038 58.8216C51.9479 36.4639 73.8873 13.3307 84.5072 4.58777C56.4757 15.3315 27.8846 68.488 79.6933 92.0828C119.883 106.39 150.726 99.8254 167.043 85.7609C165.11 81.7771 162.687 78.2432 159.864 75.1296C141.899 82.594 119.966 84.6599 90.4594 72.5783Z" fill="#1479BE"/>
</svg>
