<svg width="20" height="18" viewBox="0 0 20 18" fill="none" xmlns="http://www.w3.org/2000/svg">
<path d="M10.0644 2H10.1756C11.2032 2.00374 16.4098 2.04111 17.8136 2.4173C18.238 2.53211 18.6247 2.7559 18.9351 3.0663C19.2455 3.3767 19.4688 3.76284 19.5825 4.18614C19.7087 4.65949 19.7975 5.28606 19.8575 5.93256L19.87 6.06211L19.8975 6.38598L19.9075 6.51553C19.9888 7.65406 19.9988 8.72035 20 8.95329V9.04671C19.9988 9.28837 19.9875 10.4269 19.8975 11.6128L19.8875 11.7436L19.8762 11.8731C19.8137 12.5856 19.7212 13.2932 19.5825 13.8139C19.4688 14.2372 19.2455 14.6233 18.9351 14.9337C18.6247 15.2441 18.238 15.4679 17.8136 15.5827C16.3635 15.9713 10.8519 15.9988 10.0881 16H9.91062C9.52435 16 7.92675 15.9925 6.25164 15.9352L6.03913 15.9278L5.93037 15.9228L5.71661 15.914L5.50284 15.9053C4.11526 15.8443 2.79392 15.7459 2.18514 15.5815C1.76089 15.4668 1.37427 15.2432 1.06388 14.933C0.753488 14.6228 0.530187 14.2369 0.416276 13.8139C0.277517 13.2944 0.185012 12.5856 0.122508 11.8731L0.112507 11.7423L0.102506 11.6128C0.0404568 10.7687 0.00626954 9.92289 0 9.07661L0 8.92339C0.00250016 8.65557 0.0125008 7.73005 0.080005 6.7086L0.0887556 6.5803L0.0925058 6.51553L0.102506 6.38598L0.130008 6.06211L0.142509 5.93256C0.202513 5.28606 0.291268 4.65824 0.417526 4.18614C0.531246 3.76284 0.754462 3.3767 1.06487 3.0663C1.37527 2.7559 1.76199 2.53211 2.18639 2.4173C2.79517 2.25536 4.11651 2.15571 5.50409 2.09342L5.71661 2.0847L5.93162 2.07723L6.03913 2.07349L6.25289 2.06477C7.4426 2.02666 8.6328 2.00548 9.82311 2.00125L10.0644 2ZM8.0005 5.99858V12.0002L13.1971 9.00062L8.0005 5.99858Z" fill="white"/>
</svg>
