<svg width="63" height="12" viewBox="0 0 63 12" fill="none" xmlns="http://www.w3.org/2000/svg">
<path d="M0 8.90013V0.24384H3.76732C4.15746 0.24384 4.51509 0.325119 4.84021 0.487679C5.16533 0.650238 5.44574 0.86563 5.68146 1.13385C5.92529 1.40208 6.11224 1.70281 6.24229 2.03606C6.38046 2.36931 6.44955 2.71068 6.44955 3.06018C6.44955 3.4422 6.38046 3.80796 6.24229 4.15746C6.10411 4.50696 5.90497 4.8077 5.64488 5.05967C5.39291 5.31163 5.09624 5.49451 4.75487 5.6083L6.79092 8.90013H5.25474L3.37717 5.88872H1.3655V8.90013H0ZM1.3655 4.68171H3.75513C4.00709 4.68171 4.23061 4.60856 4.42568 4.46226C4.62075 4.31596 4.77519 4.12088 4.88898 3.87704C5.00277 3.62508 5.05967 3.35279 5.05967 3.06018C5.05967 2.75945 4.99464 2.49122 4.86459 2.25551C4.73455 2.01167 4.56386 1.8166 4.35253 1.6703C4.14933 1.524 3.92581 1.45084 3.68197 1.45084H1.3655V4.68171ZM10.7801 9.02205C10.2843 9.02205 9.83323 8.93671 9.42683 8.76602C9.02856 8.58721 8.68312 8.34743 8.39051 8.0467C8.09787 7.73783 7.87029 7.38833 7.70773 6.99819C7.5533 6.59992 7.47608 6.17726 7.47608 5.73022C7.47608 5.12875 7.61426 4.58011 7.89061 4.08431C8.16696 3.58037 8.55307 3.17804 9.04888 2.8773C9.54468 2.56844 10.1258 2.41401 10.7923 2.41401C11.4588 2.41401 12.0318 2.56844 12.5114 2.8773C12.9991 3.17804 13.377 3.57631 13.6452 4.07212C13.9135 4.56792 14.0476 5.1003 14.0476 5.66926C14.0476 5.7668 14.0435 5.86027 14.0354 5.94968C14.0273 6.03096 14.0191 6.10005 14.011 6.15694H8.90257C8.92696 6.53083 9.02856 6.86001 9.20737 7.14449C9.39431 7.42084 9.63003 7.6403 9.91451 7.80286C10.199 7.95729 10.5038 8.0345 10.8289 8.0345C11.1865 8.0345 11.5238 7.9451 11.8408 7.76628C12.166 7.58747 12.3854 7.35175 12.4992 7.05915L13.6452 7.38833C13.5071 7.69719 13.2957 7.97761 13.0113 8.22958C12.7349 8.47342 12.4057 8.66849 12.0237 8.81479C11.6417 8.95297 11.2272 9.02205 10.7801 9.02205ZM8.866 5.26693H12.7187C12.6943 4.90117 12.5886 4.58011 12.4017 4.30376C12.2229 4.01928 11.9912 3.79983 11.7067 3.6454C11.4304 3.48284 11.1215 3.40156 10.7801 3.40156C10.4469 3.40156 10.138 3.48284 9.85354 3.6454C9.57719 3.79983 9.34961 4.01928 9.17079 4.30376C8.99198 4.58011 8.89038 4.90117 8.866 5.26693ZM14.8814 7.03476C14.8814 6.62836 14.9952 6.2748 15.2228 5.97406C15.4585 5.6652 15.7796 5.42949 16.1859 5.26693C16.5923 5.09624 17.0638 5.0109 17.6002 5.0109C17.8847 5.0109 18.1732 5.03122 18.4658 5.07186C18.7666 5.1125 19.0307 5.17752 19.2583 5.26693V4.86459C19.2583 4.41756 19.1242 4.06805 18.856 3.81609C18.5878 3.56412 18.2017 3.43813 17.6978 3.43813C17.3401 3.43813 17.0028 3.50316 16.6858 3.63321C16.3688 3.75513 16.0315 3.92988 15.6739 4.15746L15.2228 3.25525C15.6454 2.97078 16.0681 2.75945 16.4907 2.62127C16.9215 2.4831 17.3726 2.41401 17.8441 2.41401C18.6975 2.41401 19.3681 2.64159 19.8557 3.09676C20.3515 3.5438 20.5994 4.18184 20.5994 5.0109V7.38833C20.5994 7.54276 20.6238 7.65249 20.6726 7.71751C20.7295 7.78254 20.823 7.81911 20.953 7.82724V8.90013C20.8311 8.92452 20.7214 8.94077 20.6238 8.9489C20.5263 8.95703 20.445 8.96109 20.38 8.96109C20.0955 8.96109 19.8801 8.89201 19.7338 8.75383C19.5875 8.61566 19.5022 8.4531 19.4778 8.26615L19.4412 7.90039C19.1649 8.25802 18.8113 8.53437 18.3805 8.72945C17.9497 8.92452 17.5149 9.02205 17.076 9.02205C16.6533 9.02205 16.2754 8.93671 15.9421 8.76602C15.6089 8.58721 15.3488 8.34743 15.1618 8.0467C14.9749 7.74596 14.8814 7.40865 14.8814 7.03476ZM18.9413 7.42491C19.0389 7.31924 19.1161 7.21358 19.173 7.10792C19.2299 7.00225 19.2583 6.90878 19.2583 6.8275V6.09598C19.0307 6.00657 18.791 5.94155 18.539 5.90091C18.287 5.85214 18.0391 5.82776 17.7953 5.82776C17.3076 5.82776 16.9093 5.92529 16.6005 6.12037C16.2997 6.31544 16.1494 6.58366 16.1494 6.92504C16.1494 7.11198 16.1981 7.29079 16.2957 7.46148C16.4013 7.63217 16.5476 7.77034 16.7346 7.87601C16.9297 7.98167 17.1694 8.0345 17.4539 8.0345C17.7465 8.0345 18.0269 7.97761 18.2952 7.86382C18.5634 7.75002 18.7788 7.60372 18.9413 7.42491ZM22.4419 0H23.783V7.05915C23.783 7.38427 23.8317 7.59153 23.9293 7.68094C24.0268 7.77035 24.1487 7.81505 24.295 7.81505C24.4576 7.81505 24.608 7.79879 24.7461 7.76628C24.8924 7.73377 25.0184 7.69313 25.1241 7.64436L25.3192 8.70506C25.1241 8.78634 24.8924 8.85543 24.6242 8.91233C24.356 8.96922 24.1162 8.99767 23.9049 8.99767C23.4497 8.99767 23.0921 8.87169 22.832 8.61972C22.5719 8.35962 22.4419 8.00199 22.4419 7.54683V0ZM26.3 8.90013V2.52374H27.6411V8.90013H26.3ZM26.3 1.47523V0H27.6411V1.47523H26.3ZM28.9927 8.05889L32.7722 3.47471H29.1268V2.52374H34.2352V3.36498L30.4801 7.94916H34.2718V8.90013H28.9927V8.05889ZM35.2085 7.03476C35.2085 6.62836 35.3223 6.2748 35.5498 5.97406C35.7855 5.6652 36.1066 5.42949 36.513 5.26693C36.9194 5.09624 37.3908 5.0109 37.9273 5.0109C38.2117 5.0109 38.5003 5.03122 38.7929 5.07186C39.0936 5.1125 39.3578 5.17752 39.5854 5.26693V4.86459C39.5854 4.41756 39.4513 4.06805 39.183 3.81609C38.9148 3.56412 38.5287 3.43813 38.0248 3.43813C37.6672 3.43813 37.3299 3.50316 37.0129 3.63321C36.6959 3.75513 36.3586 3.92988 36.0009 4.15746L35.5498 3.25525C35.9725 2.97078 36.3951 2.75945 36.8178 2.62127C37.2486 2.4831 37.6997 2.41401 38.1711 2.41401C39.0245 2.41401 39.6951 2.64159 40.1828 3.09676C40.6786 3.5438 40.9265 4.18184 40.9265 5.0109V7.38833C40.9265 7.54276 40.9509 7.65249 40.9996 7.71751C41.0565 7.78254 41.15 7.81911 41.2801 7.82724V8.90013C41.1581 8.92452 41.0484 8.94077 40.9509 8.9489C40.8533 8.95703 40.7721 8.96109 40.707 8.96109C40.4226 8.96109 40.2072 8.89201 40.0609 8.75383C39.9146 8.61566 39.8292 8.4531 39.8048 8.26615L39.7683 7.90039C39.4919 8.25802 39.1383 8.53437 38.7076 8.72945C38.2768 8.92452 37.8419 9.02205 37.403 9.02205C36.9804 9.02205 36.6024 8.93671 36.2692 8.76602C35.9359 8.58721 35.6758 8.34743 35.4889 8.0467C35.3019 7.74596 35.2085 7.40865 35.2085 7.03476ZM39.2684 7.42491C39.3659 7.31924 39.4431 7.21358 39.5 7.10792C39.5569 7.00225 39.5854 6.90878 39.5854 6.8275V6.09598C39.3578 6.00657 39.118 5.94155 38.8661 5.90091C38.6141 5.85214 38.3662 5.82776 38.1223 5.82776C37.6347 5.82776 37.2364 5.92529 36.9275 6.12037C36.6268 6.31544 36.4764 6.58366 36.4764 6.92504C36.4764 7.11198 36.5252 7.29079 36.6227 7.46148C36.7284 7.63217 36.8747 7.77034 37.0616 7.87601C37.2567 7.98167 37.4965 8.0345 37.781 8.0345C38.0736 8.0345 38.354 7.97761 38.6222 7.86382C38.8904 7.75002 39.1058 7.60372 39.2684 7.42491ZM45.6463 9.02205C45.1505 9.02205 44.6994 8.93671 44.293 8.76602C43.8947 8.58721 43.5493 8.34337 43.2567 8.0345C42.9641 7.72564 42.7365 7.37207 42.5739 6.9738C42.4195 6.57553 42.3423 6.15288 42.3423 5.70584C42.3423 5.10437 42.4764 4.55573 42.7446 4.05992C43.021 3.56412 43.403 3.16585 43.8907 2.86511C44.3865 2.56438 44.9717 2.41401 45.6463 2.41401C46.2965 2.41401 46.8614 2.56031 47.341 2.85292C47.8287 3.1374 48.1863 3.51941 48.4139 3.99896L47.1093 4.41349C46.963 4.14527 46.7558 3.938 46.4876 3.7917C46.2275 3.63727 45.9389 3.56005 45.6219 3.56005C45.2643 3.56005 44.9392 3.65353 44.6466 3.84047C44.3621 4.01928 44.1345 4.27125 43.9638 4.59637C43.8013 4.91336 43.72 5.28318 43.72 5.70584C43.72 6.11224 43.8053 6.48206 43.976 6.81531C44.1467 7.14043 44.3743 7.40052 44.6588 7.59559C44.9514 7.78254 45.2765 7.87601 45.6341 7.87601C45.8536 7.87601 46.0649 7.83943 46.2681 7.76628C46.4794 7.685 46.6623 7.57934 46.8167 7.44929C46.9712 7.31111 47.0809 7.16075 47.1459 6.99819L48.4627 7.38833C48.3245 7.70532 48.1172 7.98574 47.8409 8.22958C47.5726 8.47342 47.2516 8.66849 46.8777 8.81479C46.5119 8.95297 46.1015 9.02205 45.6463 9.02205ZM45.5 11.2532C45.2805 11.2532 45.0448 11.2247 44.7929 11.1678C44.5409 11.1109 44.2971 11.0215 44.0614 10.8996L44.4027 10.1803C44.549 10.2616 44.6872 10.3225 44.8173 10.3632C44.9554 10.4119 45.1058 10.4363 45.2684 10.4363C45.4959 10.4363 45.6748 10.3876 45.8048 10.29C45.9348 10.1925 45.9999 10.0502 45.9999 9.8633C45.9999 9.67636 45.9348 9.50567 45.8048 9.35124C45.6748 9.20493 45.4878 9.05457 45.244 8.90013L45.7073 8.58314C46.0405 8.79447 46.3087 9.01393 46.5119 9.24151C46.7233 9.47722 46.8289 9.76576 46.8289 10.1071C46.8289 10.4485 46.7111 10.7249 46.4754 10.9362C46.2478 11.1475 45.9227 11.2532 45.5 11.2532ZM49.307 7.03476C49.307 6.62836 49.4208 6.2748 49.6484 5.97406C49.8841 5.6652 50.2052 5.42949 50.6116 5.26693C51.018 5.09624 51.4894 5.0109 52.0259 5.0109C52.3103 5.0109 52.5989 5.03122 52.8915 5.07186C53.1922 5.1125 53.4564 5.17752 53.684 5.26693V4.86459C53.684 4.41756 53.5498 4.06805 53.2816 3.81609C53.0134 3.56412 52.6273 3.43813 52.1234 3.43813C51.7658 3.43813 51.4284 3.50316 51.1115 3.63321C50.7945 3.75513 50.4572 3.92988 50.0995 4.15746L49.6484 3.25525C50.0711 2.97078 50.4937 2.75945 50.9164 2.62127C51.3472 2.4831 51.7983 2.41401 52.2697 2.41401C53.1231 2.41401 53.7937 2.64159 54.2814 3.09676C54.7772 3.5438 55.0251 4.18184 55.0251 5.0109V7.38833C55.0251 7.54276 55.0495 7.65249 55.0982 7.71751C55.1551 7.78254 55.2486 7.81911 55.3786 7.82724V8.90013C55.2567 8.92452 55.147 8.94077 55.0495 8.9489C54.9519 8.95703 54.8706 8.96109 54.8056 8.96109C54.5211 8.96109 54.3058 8.89201 54.1594 8.75383C54.0131 8.61566 53.9278 8.4531 53.9034 8.26615L53.8668 7.90039C53.5905 8.25802 53.2369 8.53437 52.8061 8.72945C52.3754 8.92452 51.9405 9.02205 51.5016 9.02205C51.0789 9.02205 50.701 8.93671 50.3677 8.76602C50.0345 8.58721 49.7744 8.34743 49.5875 8.0467C49.4005 7.74596 49.307 7.40865 49.307 7.03476ZM53.367 7.42491C53.4645 7.31924 53.5417 7.21358 53.5986 7.10792C53.6555 7.00225 53.684 6.90878 53.684 6.8275V6.09598C53.4564 6.00657 53.2166 5.94155 52.9646 5.90091C52.7127 5.85214 52.4648 5.82776 52.2209 5.82776C51.7332 5.82776 51.335 5.92529 51.0261 6.12037C50.7254 6.31544 50.575 6.58366 50.575 6.92504C50.575 7.11198 50.6238 7.29079 50.7213 7.46148C50.827 7.63217 50.9733 7.77034 51.1602 7.87601C51.3553 7.98167 51.5951 8.0345 51.8796 8.0345C52.1722 8.0345 52.4526 7.97761 52.7208 7.86382C52.989 7.75002 53.2044 7.60372 53.367 7.42491ZM53.0256 1.40208C52.7818 1.40208 52.5704 1.35737 52.3916 1.26796C52.2209 1.17856 52.0624 1.09321 51.9161 1.01193C51.778 0.922526 51.6195 0.877822 51.4406 0.877822C51.2618 0.877822 51.1277 0.922526 51.0383 1.01193C50.957 1.10134 50.9042 1.19481 50.8798 1.29235C50.8554 1.38988 50.8432 1.44678 50.8432 1.46304H50.0873C50.0873 1.39801 50.1077 1.29235 50.1483 1.14604C50.1889 0.991613 50.258 0.833118 50.3556 0.670558C50.4612 0.499871 50.5953 0.357631 50.7579 0.24384C50.9286 0.12192 51.1399 0.0609602 51.3919 0.0609602C51.6357 0.0609602 51.8389 0.105664 52.0015 0.195072C52.164 0.28448 52.3185 0.373887 52.4648 0.463295C52.6192 0.552703 52.7939 0.597407 52.989 0.597407C53.1922 0.597407 53.3385 0.552703 53.4279 0.463295C53.5173 0.365759 53.5742 0.268223 53.5986 0.170688C53.6311 0.073152 53.6474 0.016256 53.6474 0H54.4155C54.4155 0.0568958 54.3911 0.158496 54.3423 0.304799C54.3017 0.451103 54.2285 0.609598 54.1229 0.780286C54.0172 0.950973 53.875 1.09728 53.6962 1.2192C53.5173 1.34112 53.2938 1.40208 53.0256 1.40208ZM59.7204 9.02205C59.2165 9.02205 58.7654 8.93671 58.3671 8.76602C57.9688 8.58721 57.6234 8.34337 57.3308 8.0345C57.0463 7.72564 56.8268 7.37614 56.6724 6.986C56.518 6.58772 56.4408 6.16507 56.4408 5.71803C56.4408 5.27099 56.518 4.84834 56.6724 4.45007C56.8268 4.0518 57.0463 3.70229 57.3308 3.40156C57.6234 3.0927 57.9688 2.85292 58.3671 2.68223C58.7735 2.50342 59.2246 2.41401 59.7204 2.41401C60.2162 2.41401 60.6633 2.50342 61.0615 2.68223C61.4679 2.85292 61.8134 3.0927 62.0978 3.40156C62.3904 3.70229 62.614 4.0518 62.7684 4.45007C62.9228 4.84834 63 5.27099 63 5.71803C63 6.16507 62.9228 6.58772 62.7684 6.986C62.614 7.37614 62.3904 7.72564 62.0978 8.0345C61.8134 8.34337 61.4679 8.58721 61.0615 8.76602C60.6633 8.93671 60.2162 9.02205 59.7204 9.02205ZM57.8185 5.73022C57.8185 6.13662 57.9038 6.50238 58.0745 6.8275C58.2452 7.15262 58.4728 7.40865 58.7572 7.59559C59.0417 7.78254 59.3628 7.87601 59.7204 7.87601C60.0699 7.87601 60.3869 7.78254 60.6714 7.59559C60.964 7.40052 61.1956 7.14043 61.3663 6.81531C61.537 6.48206 61.6224 6.1163 61.6224 5.71803C61.6224 5.31163 61.537 4.94587 61.3663 4.62075C61.1956 4.29564 60.964 4.0396 60.6714 3.85266C60.3869 3.65759 60.0699 3.56005 59.7204 3.56005C59.3628 3.56005 59.0417 3.65759 58.7572 3.85266C58.4728 4.04773 58.2452 4.30783 58.0745 4.63295C57.9038 4.94994 57.8185 5.3157 57.8185 5.73022Z" fill="white"/>
</svg>
